<svg width="229" height="45" viewBox="0 0 229 45" fill="none" xmlns="http://www.w3.org/2000/svg">
<path d="M203.482 18.1218C203.482 20.4554 205.346 22.5822 208.572 22.5822C210.524 22.5822 211.945 21.7551 212.714 20.5145C212.714 21.5188 212.832 22.0505 212.862 22.1687H216.915C216.886 22.021 216.738 21.0462 216.738 19.8941V12.716C216.738 9.70299 214.992 7.04443 210.228 7.04443C205.909 7.04443 203.956 9.82115 203.778 11.9185L207.684 12.716C207.773 11.6231 208.631 10.5596 210.199 10.5596C211.619 10.5596 212.359 11.2981 212.359 12.1548C212.359 12.657 212.093 13.041 211.294 13.1591L207.832 13.6908C205.406 14.0453 203.482 15.5223 203.482 18.1218ZM209.666 19.3329C208.424 19.3329 207.921 18.5944 207.921 17.8264C207.921 16.7925 208.631 16.3494 209.578 16.2017L212.359 15.7586V16.4085C212.359 18.683 210.998 19.3329 209.666 19.3329Z" fill="#434F5E"/>
<path d="M225.763 3.20422H221.739C221.739 3.20422 219.538 7.39884 218.721 7.48746V11.4162H221.324V17.7081C221.324 20.6326 223.188 22.4345 226.236 22.4345C227.656 22.4345 228.396 22.1095 228.573 22.0209V18.2989C228.307 18.358 227.863 18.4466 227.39 18.4466C226.414 18.4466 225.763 18.1217 225.763 16.9106V11.4162H228.633V7.48746H225.763V3.20422Z" fill="#434F5E"/>
<path d="M191.27 13.5431C191.359 12.1843 192.276 11.1799 193.696 11.1799C195.323 11.1799 196.093 12.2729 196.093 13.7203V22.1686H200.59V12.9523C200.59 9.73247 198.874 7.10345 195.027 7.10345C193.726 7.10345 192.187 7.517 191.27 8.43273V0.781982H186.772V22.1686H191.27V13.5431Z" fill="#434F5E"/>
<path d="M174.176 22.6117C180.686 22.6117 183.467 18.1808 184.148 15.2859L179.68 14.0157C179.266 15.5222 177.816 17.9445 174.176 17.9445C171.04 17.9445 168.14 15.6699 168.14 11.7412C168.14 7.33977 171.306 5.33107 174.117 5.33107C177.816 5.33107 179.147 7.78286 179.473 9.2303L183.881 7.84194C183.201 4.8289 180.419 0.781982 174.117 0.781982C168.259 0.781982 163.288 5.21292 163.288 11.7412C163.288 18.2694 168.141 22.6117 174.176 22.6117Z" fill="#434F5E"/>
<path d="M155.505 19.3918C155.505 21.0165 156.866 22.4344 158.523 22.4344C160.18 22.4344 161.57 21.0165 161.57 19.3918C161.57 17.7376 160.18 16.3788 158.523 16.3788C156.866 16.3788 155.505 17.7376 155.505 19.3918Z" fill="#434F5E"/>
<path d="M133.51 22.1687V13.7204C133.51 12.3911 134.368 11.18 135.936 11.18C137.564 11.18 138.303 12.2729 138.303 13.6613V22.1687H142.741V13.6908C142.741 12.3911 143.6 11.18 145.197 11.18C146.795 11.18 147.535 12.2729 147.535 13.6613V22.1687H151.884V12.657C151.884 8.66911 149.221 7.04443 146.44 7.04443C144.458 7.04443 143.037 7.6943 141.883 9.34852C141.144 7.90108 139.635 7.04443 137.534 7.04443C135.936 7.04443 134.043 7.87154 133.303 9.17128V7.48753H129.013V22.1687H133.51Z" fill="#434F5E"/>
<path d="M107.447 22.1686V7.48744H102.95V22.1686H107.447ZM102.565 2.99743C102.565 4.44487 103.749 5.62645 105.169 5.62645C106.649 5.62645 107.832 4.44487 107.832 2.99743C107.832 1.54999 106.649 0.368408 105.169 0.368408C103.749 0.368408 102.565 1.54999 102.565 2.99743Z" fill="#434F5E"/>
<path d="M120.886 22.1686H125.206C125.176 21.9323 125.058 20.8688 125.058 19.5396V7.48743H120.56V15.8471C120.56 17.3241 119.614 18.358 118.105 18.358C116.507 18.358 115.738 17.2355 115.738 15.8176V7.48743H111.24V16.7628C111.24 19.894 113.252 22.4935 116.832 22.4935C118.312 22.4935 119.998 21.9618 120.768 20.6916C120.768 21.0756 120.827 21.9027 120.886 22.1686Z" fill="#434F5E"/>
<path d="M80.7786 22.1687V13.7204C80.7786 12.3911 81.6367 11.18 83.2048 11.18C84.8322 11.18 85.5719 12.2729 85.5719 13.6613V22.1687H90.01V13.6908C90.01 12.3911 90.8681 11.18 92.4658 11.18C94.0636 11.18 94.8033 12.2729 94.8033 13.6613V22.1687H99.1527V12.657C99.1527 8.66911 96.4898 7.04443 93.7085 7.04443C91.7261 7.04443 90.3059 7.6943 89.152 9.34852C88.4123 7.90108 86.9033 7.04443 84.8026 7.04443C83.2048 7.04443 81.3112 7.87154 80.5715 9.17128V7.48753H76.2812V22.1687H80.7786Z" fill="#434F5E"/>
<path d="M35.0209 10.6187V5.27202H37.743C39.5182 5.27202 40.7314 6.27636 40.7314 7.96012C40.7314 9.58479 39.5182 10.6187 37.743 10.6187H35.0209ZM38.2164 14.6361C42.477 14.6361 45.4062 11.8889 45.4062 7.93058C45.4062 4.03136 42.477 1.2251 38.2164 1.2251H30.3164V22.1686H34.9913V14.6361H38.2164Z" fill="#434F5E"/>
<path d="M62.7761 13.9556C62.552 12.8822 63.0674 11.2833 64.8839 10.7492C66.9274 10.1484 68.0499 11.2349 68.4243 12.295L62.7761 13.9556ZM69.8148 15.8585C69.7434 17.0805 69.0809 18.0759 67.5199 18.5349C65.8453 19.0273 64.0634 18.3194 63.5102 16.7576L73.3306 13.8702C73.3339 13.7768 73.1984 13.1084 73.0228 12.5134C71.6854 7.97955 68.195 6.0804 63.824 7.36557C60.1627 8.4421 57.6378 12.3255 58.9752 16.8593C60.3711 21.5914 64.653 23.3503 68.5414 22.207C72.1176 21.1555 73.758 18.456 73.7203 15.8188L69.8148 15.8585Z" fill="#434F5E"/>
<path d="M57.1984 7.48742C56.9025 7.3988 56.4587 7.33972 56.0149 7.33972C54.8314 7.33972 52.9673 7.81235 52.1981 9.46657V7.48742H47.8486V22.1686H52.346V15.7585C52.346 12.8341 53.9733 11.7707 55.7782 11.7707C56.222 11.7707 56.6954 11.8002 57.1984 11.9184V7.48742Z" fill="#434F5E"/>
<path d="M0 11.7368C0 5.45822 5.08982 0.368408 11.3684 0.368408C17.647 0.368408 22.7368 5.45822 22.7368 11.7368V23.1052H11.3684C5.08982 23.1052 0 18.0154 0 11.7368Z" fill="url(#paint0_linear)"/>
<path d="M14.7363 18.9737C15.2362 18.9737 15.6414 18.5685 15.6414 18.0686V17.3652C17.4674 17.0553 18.5063 15.7862 18.5063 14.4286C18.5063 13.1004 17.672 11.9494 15.5627 11.5067L14.1933 11.2263C13.5794 11.0935 13.2645 10.7836 13.2645 10.3851C13.2645 9.91289 13.7053 9.42591 14.5868 9.42591C15.0429 9.42591 15.3678 9.52917 15.6009 9.68251C16.1326 10.0322 16.7068 10.5224 17.3243 10.3683C17.9123 10.2215 18.2916 9.61604 17.9694 9.10272C17.5445 8.42585 16.8069 7.81968 15.6414 7.58127V6.84834C15.6414 6.34847 15.2362 5.94324 14.7363 5.94324C14.2364 5.94324 13.8312 6.34846 13.8312 6.84834V7.537C12.1784 7.80263 10.8562 8.93893 10.8562 10.5917C10.8562 11.9936 11.9423 12.9971 13.7053 13.3956L15.1062 13.7055C15.7359 13.8383 16.0822 14.1187 16.0822 14.5466C16.0822 15.1221 15.5155 15.4763 14.7284 15.4763C14.0252 15.4763 13.5173 15.2692 13.1806 14.9502C12.7018 14.4965 12.0997 13.9724 11.4542 14.1083C10.9068 14.2236 10.5186 14.7436 10.7491 15.2533C11.1825 16.212 12.1655 17.14 13.8312 17.3947V18.0686C13.8312 18.5685 14.2364 18.9737 14.7363 18.9737Z" fill="white"/>
<rect x="3.49805" y="7.58301" width="5.24696" height="1.63968" rx="0.819838" fill="white"/>
<rect x="5.24609" y="10.8624" width="3.49798" height="1.63968" rx="0.819838" fill="white"/>
<rect x="6.99512" y="14.1416" width="1.74899" height="1.63968" rx="0.819838" fill="white"/>
<path d="M32.873 42V32.783H31.053V42H32.873ZM36.9779 33.693H35.4179V34.59C35.4179 35.162 35.1059 35.604 34.4299 35.604H34.1049V37.138H35.2619V40.115C35.2619 41.35 36.0419 42.091 37.2899 42.091C37.7969 42.091 38.1089 42 38.2649 41.935V40.505C38.1739 40.531 37.9399 40.557 37.7319 40.557C37.2379 40.557 36.9779 40.375 36.9779 39.816V37.138H38.2649V35.604H36.9779V33.693ZM44.8444 36.982V34.343H46.2614C47.1584 34.343 47.7044 34.85 47.7044 35.669C47.7044 36.462 47.1584 36.982 46.2614 36.982H44.8444ZM46.4824 38.529C48.3024 38.529 49.5114 37.333 49.5114 35.656C49.5114 33.992 48.3024 32.783 46.4824 32.783H43.0374V42H44.8314V38.529H46.4824ZM50.1726 40.258C50.1726 41.259 51.0046 42.182 52.3696 42.182C53.3186 42.182 53.9296 41.74 54.2546 41.233C54.2546 41.48 54.2806 41.831 54.3196 42H55.9056C55.8666 41.779 55.8276 41.324 55.8276 40.986V37.84C55.8276 36.553 55.0736 35.409 53.0456 35.409C51.3296 35.409 50.4066 36.514 50.3026 37.515L51.8366 37.84C51.8886 37.281 52.3046 36.8 53.0586 36.8C53.7866 36.8 54.1376 37.177 54.1376 37.632C54.1376 37.853 54.0206 38.035 53.6566 38.087L52.0836 38.321C51.0176 38.477 50.1726 39.114 50.1726 40.258ZM52.7336 40.895C52.1746 40.895 51.9016 40.531 51.9016 40.154C51.9016 39.66 52.2526 39.413 52.6946 39.348L54.1376 39.127V39.413C54.1376 40.544 53.4616 40.895 52.7336 40.895ZM59.6154 44.522L63.6324 35.604H61.7864L60.2134 39.348L58.5104 35.604H56.5734L59.2904 41.194L57.7824 44.522H59.6154ZM64.045 40.219C64.123 40.947 64.786 42.195 66.71 42.195C68.387 42.195 69.193 41.129 69.193 40.089C69.193 39.153 68.556 38.386 67.295 38.126L66.385 37.931C66.034 37.866 65.8 37.671 65.8 37.359C65.8 36.995 66.164 36.722 66.619 36.722C67.347 36.722 67.62 37.203 67.672 37.58L69.115 37.255C69.037 36.566 68.426 35.409 66.606 35.409C65.228 35.409 64.214 36.358 64.214 37.502C64.214 38.399 64.773 39.14 66.008 39.413L66.853 39.608C67.347 39.712 67.542 39.946 67.542 40.232C67.542 40.57 67.269 40.869 66.697 40.869C65.943 40.869 65.566 40.401 65.527 39.894L64.045 40.219ZM75.9271 33.693H74.3671V34.59C74.3671 35.162 74.0551 35.604 73.3791 35.604H73.0541V37.138H74.2111V40.115C74.2111 41.35 74.9911 42.091 76.2391 42.091C76.7461 42.091 77.0581 42 77.2141 41.935V40.505C77.1231 40.531 76.8891 40.557 76.6811 40.557C76.1871 40.557 75.9271 40.375 75.9271 39.816V37.138H77.2141V35.604H75.9271V33.693ZM81.4923 40.622C80.6473 40.622 79.8673 39.998 79.8673 38.802C79.8673 37.593 80.6473 36.982 81.4923 36.982C82.3373 36.982 83.1173 37.593 83.1173 38.802C83.1173 40.011 82.3373 40.622 81.4923 40.622ZM81.4923 35.409C79.5813 35.409 78.1383 36.826 78.1383 38.802C78.1383 40.765 79.5813 42.195 81.4923 42.195C83.4033 42.195 84.8463 40.765 84.8463 38.802C84.8463 36.826 83.4033 35.409 81.4923 35.409ZM93.726 42.195C96.313 42.195 97.639 40.479 97.99 39.062L96.313 38.555C96.066 39.413 95.299 40.44 93.726 40.44C92.244 40.44 90.866 39.361 90.866 37.398C90.866 35.305 92.322 34.317 93.7 34.317C95.299 34.317 96.014 35.292 96.235 36.176L97.925 35.643C97.561 34.148 96.248 32.588 93.7 32.588C91.23 32.588 89.007 34.46 89.007 37.398C89.007 40.336 91.152 42.195 93.726 42.195ZM100.953 38.243C100.992 37.541 101.421 36.995 102.149 36.995C102.981 36.995 103.332 37.554 103.332 38.269V42H105.061V37.97C105.061 36.566 104.307 35.435 102.682 35.435C102.071 35.435 101.369 35.643 100.953 36.137V32.588H99.2238V42H100.953V38.243ZM106.426 40.258C106.426 41.259 107.258 42.182 108.623 42.182C109.572 42.182 110.183 41.74 110.508 41.233C110.508 41.48 110.534 41.831 110.573 42H112.159C112.12 41.779 112.081 41.324 112.081 40.986V37.84C112.081 36.553 111.327 35.409 109.299 35.409C107.583 35.409 106.66 36.514 106.556 37.515L108.09 37.84C108.142 37.281 108.558 36.8 109.312 36.8C110.04 36.8 110.391 37.177 110.391 37.632C110.391 37.853 110.274 38.035 109.91 38.087L108.337 38.321C107.271 38.477 106.426 39.114 106.426 40.258ZM108.987 40.895C108.428 40.895 108.155 40.531 108.155 40.154C108.155 39.66 108.506 39.413 108.948 39.348L110.391 39.127V39.413C110.391 40.544 109.715 40.895 108.987 40.895ZM115.917 33.693H114.357V34.59C114.357 35.162 114.045 35.604 113.369 35.604H113.044V37.138H114.201V40.115C114.201 41.35 114.981 42.091 116.229 42.091C116.736 42.091 117.048 42 117.204 41.935V40.505C117.113 40.531 116.879 40.557 116.671 40.557C116.177 40.557 115.917 40.375 115.917 39.816V37.138H117.204V35.604H115.917V33.693ZM120.923 32.783H118.83L119.246 39.192H120.507L120.923 32.783ZM118.856 41.077C118.856 41.649 119.311 42.104 119.87 42.104C120.442 42.104 120.91 41.649 120.91 41.077C120.91 40.505 120.442 40.037 119.87 40.037C119.311 40.037 118.856 40.505 118.856 41.077Z" fill="#697B90"/>
<defs>
<linearGradient id="paint0_linear" x1="1.62406" y1="0.368409" x2="23.1568" y2="2.89186" gradientUnits="userSpaceOnUse">
<stop stop-color="#7CCF6F"/>
<stop offset="1" stop-color="#4FC77F"/>
</linearGradient>
</defs>
</svg>
